<svg xmlns="http://www.w3.org/2000/svg" viewBox="0 0 218.61 311.11"><defs><style>.cls-1{isolation:isolate;}.cls-2{fill:#ff882a;}.cls-3{fill:#2f2720;}.cls-4{fill:#d6a94f;}.cls-5{fill:#355fa3;}.cls-6{fill:#6c91c4;}.cls-10,.cls-12,.cls-22,.cls-38,.cls-6{mix-blend-mode:multiply;}.cls-7{fill:#f9551a;}.cls-8{fill:#c4ff36;}.cls-9{fill:#99c2d6;}.cls-10{fill:#f09f69;}.cls-11{fill:#fcc7aa;}.cls-12{fill:#fad3be;}.cls-13{fill:#4a2727;}.cls-14{fill:#ffd6bf;}.cls-15{fill:#c7c7ce;}.cls-16{fill:#ffcb21;}.cls-17{fill:#ffbe24;}.cls-18{fill:#ffdc42;}.cls-19{fill:#ffa600;}.cls-20{fill:#ffe342;}.cls-21{fill:#4076dd;}.cls-22{fill:#bacebd;}.cls-23{fill:#6aaaea;}.cls-24{fill:#f2f0fc;}.cls-25{fill:#f2f2f2;}.cls-26{fill:#cfcfe6;}.cls-27{fill:#eaeaf5;}.cls-28{fill:#f5f5f5;}.cls-29{fill:#b8630f;}.cls-30{fill:#8a4807;}.cls-31{fill:#7a4006;}.cls-32{fill:#d6802b;}.cls-33{fill:#d47d26;}.cls-34{fill:#f8c25a;}.cls-35{fill:#3581bd;}.cls-36{fill:#c2d9eb;}.cls-37{fill:#9f5900;}.cls-38{fill:#d1bf91;}.cls-39{fill:#fa9c69;}.cls-40{fill:#323338;}.cls-41{fill:#0053d0;}</style></defs><g class="cls-1"><g id="Layer_2" data-name="Layer 2"><g id="layer"><path class="cls-2" d="M61.91,84.94s.74,1.68-1.7,2.84S53,89.1,53,89.1L45.09,73.92l5.24-13a20.4,20.4,0,0,1,4.43,4.77c1.7,2.73,4.78,14.86,5.17,15S61.91,84.94,61.91,84.94Z"/><path class="cls-3" d="M37.05,227.07a20.24,20.24,0,0,0-.2,2.34c.07.13,7.65,3.6,10.2,4s9.09,4.09,11.42,4.29,3.21-.77,3.42-1.34A7.15,7.15,0,0,0,62,233c-.31-1.19-5.94-2.4-5.94-2.4Z"/><path class="cls-4" d="M48.94,223.55s7.46,3.39,9.06,4.17a7.31,7.31,0,0,1,3.77,4.41c.48,1.93-.07,3.39-1.63,4s-8.22-2-8.36-2.27-9.62-3.3-10-3.65-4.63-1.07-4.76-3.09,3.47-7.63,3.47-7.63Z"/><path class="cls-5" d="M50.21,225.71c-.12,1.39-4.68,3.15-6.07,3-1.11-.09-4.94-.42-7.27-1.77a4.16,4.16,0,0,1-1.41-1.23c-1.63-2.4-1.68-9.4-3.07-15.76s-2.1-24.62-2.53-25.84-1.5-6.13-1.35-16.24,0-24.89,2.38-27.81c.91-1.14,3.64-2.3,6.61-3.3,4.68-1.56,10-2.71,10-2.71s2.84,13.27,2.66,18,.46,21,.65,23.8a82.4,82.4,0,0,1-.74,13.72c-.58,3.07-1,20.58-1,24.13S50.33,224.32,50.21,225.71Z"/><path class="cls-6" d="M38,222.19c.39.87-2.79-3.95-3-4.22.08.38,1.31,6.37,1.34,7.09a14.6,14.6,0,0,0,.48,1.91,4.16,4.16,0,0,1-1.41-1.23c-1.63-2.4-1.68-9.4-3.07-15.76s-2.1-24.62-2.53-25.84-1.5-6.13-1.35-16.24,0-24.89,2.38-27.81c.91-1.14,3.64-2.3,6.61-3.3h0c1.9,3.59-1.35,15.5-1.35,15.5s-1.35,14.82-1.27,14.83,3.42,5,3.42,5,2.84,4.87,3,5.2-1.06,7.88-1.06,7.88-.09,4-.78,4.19-2.34-1-2.88.56.44,7.68.44,7.68l4.5,2.86-3.63.87L37,204.77l2.59,1.3a3.42,3.42,0,0,0-1.77,1.9c-.33,1.26.38,4.77.38,4.77l3.61,6.33L38,215.73l-3.36-4.38.74,5.23S37.62,221.29,38,222.19Z"/><path class="cls-3" d="M7,237l-1.25,1s-.7,1.93-.24,2.89,2.15,6.32,2.83,7.83,4,3.4,6.82,4,5.39-.08,6.14-.77.61-2.74.61-2.74l-8.1-6.24Z"/><path class="cls-4" d="M16.59,234.35a59.57,59.57,0,0,0,3.2,8.51c1.62,3.1,2.6,6.15,1.84,7.48s-3.55,1.8-6.23,1.62a8.35,8.35,0,0,1-6-3.58c-1.4-1.79-2.56-7.21-2.56-7.21S6,238,5.68,236.65a33.78,33.78,0,0,1-.27-5.1Z"/><path class="cls-5" d="M38.18,142.22c-.38,4.39-2.32,10.78-2.42,12s-3.67,8.95-4.22,10.3c-.26.64-1.52,3.49-3,7-1.64,3.94-3.56,8.74-4.66,12.33-.86,2.8-1.24,7.67-1.39,12.79h0c-.22,7.32,0,15.14,0,18.19,0,5.16-2.81,17.74-2.81,17.74s-2.2,4.22-3.95,4.61a36.28,36.28,0,0,1-8,.07c-1.22-.1-2.75-1.51-3.87-2.94a6.5,6.5,0,0,1-1.55-2.9c.09-1.07,0-12.17-.15-18.42s1.53-24.2,1.5-25.17-2.15-27.71-2.52-34.69c-.36-6.58,2.22-16,2.51-17.07l0-.1h.16l2.15.13C13.81,136.62,38.49,138.53,38.18,142.22Z"/><path class="cls-6" d="M23.86,183.85c-.86,2.8-1.24,7.67-1.39,12.79h0c-.08.14-2.59,4.73-2.53,5.48s-3.87,2.47-3.87,2.47l-1.83-9L16.36,185l2.39-11.85,8.73-5.71,1,4.05C26.88,175.46,25,180.26,23.86,183.85Z"/><path class="cls-6" d="M4,228.66c-.08.92-.09,3.38-.08,5.66a6.5,6.5,0,0,1-1.55-2.9c.09-1.07,0-12.17-.15-18.42s1.53-24.2,1.5-25.17-2.15-27.71-2.52-34.69c-.36-6.58,2.22-16,2.51-17.07l.19-.09c1.36-.63,2.29-1,2.29-1L6,136.11,4.69,147.43s-.08,14.75.17,15.42,2.47,12.91,2.47,12.91l.8,14.6-3.61-17.1s.92,13.21.8,14.71-.05,14.31.19,15.3-1.27,15-1.27,15S4.16,226.73,4,228.66Z"/><path class="cls-7" d="M55.74,81.49c-.29,3.45-1.87,13.41-2.12,16.3s-2.43,10.45-3.94,21.7-.29,12.89-1.44,16.77S44.5,145.05,35,148.52a27.9,27.9,0,0,1-10.62,1.37,51,51,0,0,1-12.53-2.25,42.3,42.3,0,0,1-4.1-1.45c-4.75-2-8.25-6.67-7.7-9.93s2-5.07,2.36-6S7.63,115.59,8.24,114s0-8,0-8.66S3.77,80.61,5.31,76.6s5.45-6.53,6.55-7.5,11.07-7.89,11.7-8.32S30.91,56,30.91,56l14,2.66a12.56,12.56,0,0,1,8.58,5.43C56.8,69.08,56,78.07,55.74,81.49Z"/><path class="cls-8" d="M53.59,116.78c.18,3.24.18,5.94-.74,7.09-2,2.53-10.11,6.85-10.54,3.55s2.14-46.82,2-48.64,1.41-3.72,2.89-7S45.8,60.27,45.8,60.27a1.23,1.23,0,0,1,1.13-.58,4.93,4.93,0,0,1,2.47.61,10.83,10.83,0,0,1,4.22,4.26A17.74,17.74,0,0,1,56,73.78c0,7.15-1.15,24.15-2.38,31a30.43,30.43,0,0,0-.33,5.74C53.34,112.64,53.49,114.81,53.59,116.78Z"/><path class="cls-9" d="M53.31,110.49c0,2.15.18,4.32.28,6.29-.79.86-1.56,1.63-2.17,2.17a5,5,0,0,1-3.14,1.43,3,3,0,0,1-1.23-.26,4,4,0,0,1-2-3.68l2-35.51a19,19,0,0,1,1.41-6.15c1.3-3.2,2.81-9.32-1.89-14.74l.41-.35a4.93,4.93,0,0,1,2.47.61,10.83,10.83,0,0,1,4.22,4.26,20.3,20.3,0,0,1-1.2,11.88,13.7,13.7,0,0,0-1.08,4.72l-1.86,33.62C50.63,113.64,52.06,112,53.31,110.49Z"/><path class="cls-8" d="M38.17,112.28c-1.92,20.61-3.83,20.55-13.35,22.47s-22-7.46-21.83-8.4c0-.33.71-2,1.55-4,.77-1.79,1.69-3.91,2.46-5.67.91-2.12,1.63-3.75,1.63-3.75s17.08,6.92,17.72-4.34-.84-24.79-6.69-32.45-10-5.23-10-5.23l-3,2.93A19.83,19.83,0,0,1,9,69.64a62.55,62.55,0,0,1,6.1-4.08c1.43-.89,2.94-1.81,4.22-2.58,2-1.2,3.42-2.07,3.42-2.07,2.14-1.3,2.22-.61,2.22-.61s-3.4,2.63-1.4,6.1S31.45,73.58,35.34,76s3.37,4.24,4.34,5.31S39.09,102.66,38.17,112.28Z"/><path class="cls-9" d="M37.68,81.87c-.25-1.6-1.63-2.6-4.67-4.77a63.29,63.29,0,0,1-10.39-8.83C20.12,65.43,20,64.18,20,64.05a.32.32,0,0,1-.3.28L19.33,63c-1.28.77-2.79,1.69-4.22,2.58a14.92,14.92,0,0,0,3.71,6.1A67.72,67.72,0,0,0,30,81.24c.94.66,2,1.48,2.62,2,0,5.7-1.83,37.76-3.8,41.21-.59.54-3.83,1.28-8.73.48C15.57,124.15,10,122,8,118.31a16.19,16.19,0,0,0-1-1.64c-.77,1.76-1.69,3.88-2.46,5.67,3.78,5,11.16,7.35,17.19,7.89.64.05,1.5.1,2.5.1,2.91,0,6.82-.46,8.6-2.73C36.69,122.75,37.74,82.21,37.68,81.87Z"/><path class="cls-6" d="M27.73,164c-.68,1.24-9,9.67-9,9.67l-2.71-10-4.15-16a51,51,0,0,0,12.53,2.25v.05S28.41,162.8,27.73,164Z"/><path class="cls-10" d="M23.13,105.77c-.25,1.35-1,11.53-1,11.53l2.41,16.46-.16,16.13a51,51,0,0,1-12.53-2.25l-.22-.9L10,129.7,9,114.51l4.78-10.44s4.85-12.61,7.66-12.3l4.35,7.69-.36,4.32S23.38,104.41,23.13,105.77Z"/><path class="cls-11" d="M7.77,99.58l-.55-1.09Z"/><path class="cls-11" d="M29.23,55.07a17.51,17.51,0,0,1-1.16,2.54c-.56.92-2.3,2.44-2.55,2.85s1.91,3.72,2.42,4.57,5.2,4.48,7.6,5.38,3.81.71,5.42-.5,2.11-7,2.11-7S32.39,53.56,29.23,55.07Z"/><path class="cls-2" d="M38,70.89l-1.09,3.59a49.08,49.08,0,0,1-9.17-5.21c-4-3-4.13-8.49-4.13-8.49l2.9-2.5L28,57.89s-.86,2.74-.43,4,6.86,8.44,11,7.64a11.74,11.74,0,0,0,6.3-3.24l-2.27,8.19Z"/><path class="cls-12" d="M30.83,62.1s2.78,4.88,3.29,6,2.93,5.39,3.11,5.7,4.38,3.1,5.46,2.74,5.52-5.62,5.73-6.65,0-6.75,0-6.75-1.63-2.64-2.58-2.84S30.88,59.61,30.83,62.1Z"/><path class="cls-11" d="M55.19,47.66s-2.14,10.52-2.43,11.47a60.88,60.88,0,0,1-4.59,8.33,40.94,40.94,0,0,1-4.35,4.31,10.53,10.53,0,0,1-4.33.33c-.85-.24-6.55-5.95-8.49-9.66s-2.14-10.74-1.7-12.8,1.54-10.58,3.73-11S55,39.3,55.19,47.66Z"/><path class="cls-13" d="M52.78,49.44a13.21,13.21,0,0,1-6.93,1.13c-4.06-.4-4.86-1.81-5.94-1.69s-3,3.51-3,3.51L34.71,54.3l-2.28.88-.79,4.14-.92-1.75s.5-4,.42-4.92a6.44,6.44,0,0,0-1.54-2.82c-.3-.19-1.13,1.89-1.13,1.89s-.57-1.55-.06-7.48,1.93-10.6,7-13.18S49.19,30.3,52,32.48s4.33,5.37,4.37,11.24a21.55,21.55,0,0,1-2.47,10.12,44.86,44.86,0,0,0,.27-5.14C54,48.2,52.78,49.44,52.78,49.44Z"/><path class="cls-14" d="M30.22,56.64a2.29,2.29,0,0,1-1.81-1.09,15.2,15.2,0,0,1-1.08-5.25c.16-1,.57-1.49,1.13-1.44s2.7,2.52,2.57,3.32S31,56.62,30.22,56.64Z"/><path class="cls-14" d="M50.26,53.06a40.23,40.23,0,0,1-2.47,4.4c-.58.59-3,.82-3,.82s-4.87-.64-6.08-1.6.58-6.29,2.59-5.8a63.65,63.65,0,0,0,8,1.49C50.76,52.42,50.26,53.06,50.26,53.06Z"/><polygon class="cls-15" points="32.92 50.48 30.6 56.23 30.45 61.18 31.53 63.35 32.33 56.91 35.32 50.85 32.92 50.48"/><path class="cls-16" d="M57.16,50.39c-.51,2.33-1.27,4-2,4.52-1.92,1.43-10.88,2.61-18.33-.92-3.83-1.78-6-5.49-7.23-8.68a24.9,24.9,0,0,1-1.45-5.61,13.31,13.31,0,0,1,.46-2.23v0c2-7.43,8.14-8.86,11.59-9.12.81-.07,1.48-.07,1.91-.07h.31a10.07,10.07,0,0,1,1.1,0c3.24.2,9.52,1.33,11.89,6.33a16.54,16.54,0,0,1,.8,2A25.85,25.85,0,0,1,57.16,50.39Z"/><path class="cls-17" d="M34.28,52.33s1.49,6,7.29,7.31,12.85,0,14.46-.8.18-5.42.18-5.42a41.32,41.32,0,0,1-10,.9A35.13,35.13,0,0,1,34.28,52.33Z"/><path class="cls-18" d="M56.78,44.55c-1.1,1.45-14,5.26-19.91-3.53s1-12,1-12a21.53,21.53,0,0,1,2.35-.72c.81-.07,1.48-.07,1.91-.07,2.38,0,10.52.51,13.3,6.38a16.54,16.54,0,0,1,.8,2C57.29,40.23,57.39,43.76,56.78,44.55Z"/><path class="cls-19" d="M53.87,45.89s-1-7.62-2-10.37a36.63,36.63,0,0,0-3.48-6.38s5,3.11,5.51,5.16S53.87,45.89,53.87,45.89Z"/><path class="cls-19" d="M49,46.63S48.28,38,46.57,34.08a14.8,14.8,0,0,0-4.42-5.82l3.66.76,5.35,11.53Z"/><path class="cls-19" d="M42.29,45.47S41,37.4,39.92,34.69a27,27,0,0,0-3.44-5.55l2-.12,4.24,8.05Z"/><path class="cls-19" d="M42.46,28.26c-2.4,0-8.17.89-10.62,8.3a54.57,54.57,0,0,0-2.2,8.75,24.9,24.9,0,0,1-1.45-5.61c1.3-9.4,8.27-11.08,12.05-11.37.81-.07,1.48-.07,1.91-.07Z"/><path class="cls-20" d="M28.79,36.93l.17-.52s1.63,7.75,4.48,10.72,8.42,6,16.2,5.62a16.3,16.3,0,0,0,7.52-2.36l-.1.46a8.87,8.87,0,0,1-1.87,2.79c-.88.59-8.46,1.69-13.21,0s-8.34-3.76-9.53-5.2-3-6.15-3-6.15Z"/><path class="cls-19" d="M57.06,50.85c-.51,2.32-1.17,3.53-1.86,4.06-1.92,1.43-10.88,2.61-18.33-.92-3.83-1.78-6-5.49-7.23-8.68a24.9,24.9,0,0,1-1.45-5.61,22.14,22.14,0,0,1,.6-2.77c.13.54,1.84,9.79,6.93,12.83C45.09,55.36,56,52.89,57.06,50.85Z"/><path class="cls-20" d="M36.48,29.14a11.09,11.09,0,0,1,4.31,6.67,54.29,54.29,0,0,1,1.5,9.66,9,9,0,0,0,3.8,1c-.85-9.54-1.2-11-2.45-13.8a9.11,9.11,0,0,0-4.38-4.24Z"/><path class="cls-20" d="M49,46.63s-.37-11.64-2.91-15-3.94-3.39-3.94-3.39a13.2,13.2,0,0,1,4.3.4c4.19,3.23,4.78,7.92,5.31,11.37a47.13,47.13,0,0,1,.5,6.26A19.53,19.53,0,0,1,49,46.63Z"/><path class="cls-20" d="M53.87,45.89a43.71,43.71,0,0,0-1.61-10.77c-1.5-4.63-3.9-6-3.9-6a10,10,0,0,1,4.35,2.16c1.8,2,2.91,5.54,3.15,8.73a49.8,49.8,0,0,1,.17,5A22.79,22.79,0,0,1,53.87,45.89Z"/><path class="cls-14" d="M45.73,62.2a18.74,18.74,0,0,1-2.47,1.89c-.67.31,1.63,2.2,1.63,2.2l1.25.1s.27-3.94.47-5.59S45.73,62.2,45.73,62.2Z"/><path class="cls-14" d="M40.32,64.25s-3,2.6-4.36,1.27-3.13-4.38-3-6.09.25-3,.25-3a20.26,20.26,0,0,1,1.62,2.48c.45,1,3.44,4.38,3.82,4.39S41.92,63.15,40.32,64.25Z"/><path class="cls-3" d="M141.82,201s6.5,6.12,8.26,7.24,2,4.46,1.92,5.82-3,2.73-4.9,2.57-7.35-5.55-7.35-5.55-7.53-3.63-9.86-5.61.56-6.57.56-6.57Z"/><path class="cls-4" d="M141.9,200s6.51,6.13,8.27,7.25,2,4.45,1.92,5.81-3,2.73-4.9,2.57-7.36-5.55-7.36-5.55-7.52-3.63-9.85-5.61.56-6.57.56-6.57Z"/><path class="cls-5" d="M138.58,204.29c-.89.25-5.41.29-7.57-1a15.47,15.47,0,0,1-2.7-2.27c-1.57-1.58-3-3.27-3-3.27s-1.14-18.08-.95-20.32-1.41-27.68-2.67-30.59-3.61-10.64-3.63-11.71c0-.3-.27-2.2-.53-4.82-.69-7-1.34-19.15,3.19-19.93,6.23-1.09,19.62-.38,19.62-.38a37.27,37.27,0,0,1,4.5,15.35c.55,8.77-1.41,34.22-1.57,41.1s-.52,31.28-.3,33.78S139.46,204,138.58,204.29Z"/><path class="cls-6" d="M127.15,194.06c1.08,1.59,1.16,7,1.16,7h0c-1.57-1.58-3-3.27-3-3.27s-1.14-18.08-.95-20.32-1.41-27.68-2.67-30.59-3.61-10.64-3.63-11.71c0-.3-.27-2.2-.53-4.82a24.91,24.91,0,0,1,5,2s.56,10.5,1.63,15.65,2.44,18.07,2.34,21.73a39.07,39.07,0,0,0,.74,7.7s-1.28-.11-.94.89,2,9.21,2.78,10.36,3.29,8.14,3.29,8.14l-5-6.67S126.06,192.45,127.15,194.06Z"/><path class="cls-3" d="M113,209.2s-.71,7.36,0,8.39,1.86,6.54,1.38,7.47-3.9,1.2-3.9,1.2-7.5-1-8-2.94-1.08-6.31-.79-7.82-1.74-6-1.23-8.26S113,209.2,113,209.2Z"/><path class="cls-4" d="M113.12,208s-.71,7.37,0,8.4,1.87,6.53,1.38,7.46-3.89,1.2-3.89,1.2-7.5-1-8-2.94-1.07-6.31-.78-7.82-1.75-6-1.24-8.26S113.12,208,113.12,208Z"/><path class="cls-5" d="M116.66,164.74l-.75,36.53s-1,7.13-2.54,8.18-11.86.28-11.86.28-.29-.4-.73-1c-1.22-1.86-3.53-5.76-3.3-8.44.31-3.63.44-20.31.4-21s-1.27-25.63-3.27-34.95.21-31.52.21-31.52l10.93-.54,17.83-.88s-.09,14.95-.38,18.27-2.86,7.07-4.35,13.19S116.66,164.74,116.66,164.74Z"/><path class="cls-6" d="M112.31,143.81c-.69,1.87-2.31,5.61-2.31,5.61l-1.39,6.13-3.13-1.11s.28,9.37-.24,10.94-1.4,10.75-1.4,10.75l.57,8.56-3.13-2.53-.26,8.15L99.3,187.8l-.08,13.49,1.56,7.39c-1.22-1.86-3.53-5.76-3.3-8.44.31-3.63.44-20.31.4-21s-1.27-25.63-3.27-34.95.21-31.52.21-31.52l10.93-.54c.12,4,.26,9.25.26,10.69,0,2.42,4.54,11.18,4.54,11.18S113,141.93,112.31,143.81Z"/><path class="cls-21" d="M148.25,59.47c-1.4,5-4.3,18.8-4.3,18.8.45,7.73-2.23,13.26-3.15,17.38s1,11.46,1.31,12.14a25.25,25.25,0,0,1,1.28,4.87c-.11.32-7.53,6.79-10.41,8.4s-15.74,5.2-28,.43a57.18,57.18,0,0,1-8-3.7c-4.26-2.49-4.2-3.89-4.2-3.89s1.55-6.8,1.72-7.79,2.07-12.87,2.19-14.72,7.9-12.65,6.06-21.44c-.31-1.52-.69-3.26-1.09-5.09-1.92-8.74-4.36-19.73-3.27-21.06,1.32-1.61,13.35-7.58,13.35-7.58l3.31-.9c3.3-.9,12.87-.73,16.82-.39s15.5,5.08,17.55,6.23S149.65,54.42,148.25,59.47Z"/><path class="cls-22" d="M109.48,97.18,108,109.78l-3.09,11.71-8-3.7h0c-4.26-2.49-4.2-3.89-4.2-3.89s1.55-6.8,1.72-7.79,2.07-12.87,2.19-14.72,7.9-12.65,6.06-21.44c-.31-1.52-.69-3.26-1.09-5.09,1.54-1.84,2.51-3,2.51-3s6.21,16.73,6.3,18.78S109.48,97.18,109.48,97.18Z"/><path class="cls-11" d="M136.65,21.34s-1.6,11.27-1.54,12.46a57,57,0,0,1,.26,7.56c-.23,2.13-4,7.52-4,7.52l-2.12.24a38,38,0,0,1-5.17-1.67c-1.35-.71-2.9-.84-3.69-4.25s1.86-13,2-14.2S136.65,21.34,136.65,21.34Z"/><path class="cls-14" d="M135.33,36.88s-2.92,5.82-4.05,7.66-2.74,4.4-2.74,4.4a19.88,19.88,0,0,0,3.21-2.26l3.24-4,.38-1.31Z"/><path class="cls-23" d="M135.37,38a57.57,57.57,0,0,1-2.87,7.22c-1.48,2.83-3.29,3.36-3.29,3.36a22.53,22.53,0,0,1-5.86-1.88c-1.9-1.16-3.54-4.55-3.54-4.55s-1.17,2.92-1,3.47-.56,1.68,2.39,3.55a66.14,66.14,0,0,0,5.9,3.31l2.08-3,2.81,3s3.78-3.28,4.41-5.22c2.45-7.54.82-10.11-1.13-11.54C135.32,36.71,135.37,38,135.37,38Z"/><path class="cls-12" d="M132.35,32.06s-1.76,7.33-2.6,9-7.18,5.22-10,5.17c-1.52,0-3.83-1.62-4.89-3.65a36.93,36.93,0,0,1-2.09-6.7l2.49-.67,11.94.25Z"/><path class="cls-11" d="M133.54,32.59s-2.66,7.2-3.53,7.94-9,5.1-11,4.6a5.07,5.07,0,0,1-4-3.74c-.73-2.21-2.44-8.66-2.51-10.92s-.39-5.53-.39-6.23-.38-6.81.79-9.24,7.33-7,9.16-7,11.05,6.11,11.14,6.28S136.42,25.67,133.54,32.59Z"/><path class="cls-13" d="M132.79,29.36,132,30.68l-1.39-.11-1.05-2.79s-1.43-2.81-1.29-4.41-2.22-4.93-2.67-4.7a11.81,11.81,0,0,1-7.76.69c-3.61-1.12-4.45-3.29-4.45-3.29s-1.11.65-1.19,1.45-.19,2.42-.19,2.42a40.56,40.56,0,0,1-.17-7.18c.29-3.42,3.43-8,8.78-10.17S134,3.73,137.28,6.43s3.47,7.94,3,10.16-2.72,11-2.72,11-.88-2.92-2.39-1.6A10,10,0,0,0,132.79,29.36Z"/><path class="cls-14" d="M133.85,27.7s1.51-1.95,3.13-2,.94,3.47.5,4.24-1.46,3.36-2.37,3.56-1.64-1.32-1.63-1.48S133.47,28.13,133.85,27.7Z"/><path class="cls-14" d="M126,21.93s.57,4.57,1.78,5.59A9.91,9.91,0,0,1,130.07,31c0,.22-2.21,5.09-2.21,5.09s-4.41,2.21-5.7,1.12-1.48-2.46-.57-2.48a15.5,15.5,0,0,0,4.93-1.85c.64-.57.41-2.92.41-2.92l-4.9-1.8s-5.42-.19-7.09-1.41-.84-5.29-.3-6,3.15.32,4.89.69S125.77,20.82,126,21.93Z"/><path class="cls-24" d="M140.5,18.38a1.34,1.34,0,0,1-.05.2,31.32,31.32,0,0,1-7,3.3c-2.55.74-7.2,1.91-15,.89s-8.42-3.65-8.42-3.65-.41-2.94,1-10a8.9,8.9,0,0,1,1.89-4l.17-.25c3-3.63,8.1-4.73,8.1-4.73a24.52,24.52,0,0,1,8.88.77.08.08,0,0,1,0,0,15.37,15.37,0,0,1,8.12,5.39,0,0,0,0,1,0,0c.25.33.48.69.69,1C141.21,11.18,140.75,17.2,140.5,18.38Z"/><path class="cls-25" d="M119.64,10.54c-8.48-1-7.25-4.52-6.71-5.44l.17-.25c3-3.63,8.1-4.73,8.1-4.73,8.81-.71,14.32,2.48,17,6.18a0,0,0,0,1,0,0C139.94,9.08,128.44,11.6,119.64,10.54Z"/><path class="cls-26" d="M122.32,10.75s2.68-6.67,4.87-7.86,3.24-1.84,6.47-.52A9.2,9.2,0,0,0,128.71.91C127.07,1.09,121.72,4.77,122.32,10.75Z"/><path class="cls-26" d="M140.5,18.38h-1.1S140.4,4,130.16.91a15.4,15.4,0,0,1,8.09,5.39,0,0,0,0,1,0,0c.25.33.48.69.69,1C141.21,11.18,140.75,17.2,140.5,18.38Z"/><path class="cls-25" d="M110.09,15.86l0-.57s.81,2.89,8.58,3.92,18.38-1.6,20.49-3.2c1.52-.84,1.51-1.24,1.51-1.24l.38.24-1.61,2.84-18.23,3.79-8.71-2.08L110.48,17Z"/><path class="cls-26" d="M110.09,15.86s-.12,2.19,8,3.52,19.54-1,22.61-3.89l.37-.48v3.62s-3.65,3.28-11.37,4.33A39.3,39.3,0,0,1,114,22.19,5.11,5.11,0,0,1,110,18.36Z"/><path class="cls-27" d="M110,17.19s-5.75,3.51-.43,6,10.42,2.35,13.75,2.31,6.72-2.8,6.72-2.8-9,.49-15.72-1.35C110.89,20.4,110.5,19.47,110,17.19Z"/><path class="cls-28" d="M133.66,2.37S131,.45,128.23,1.49,124,5.72,123.35,7.55s-1,3.2-1,3.2-2-.13-2.68-.21c.69-4.1,1.45-6.18,3.16-8.25a6.14,6.14,0,0,1,4.5-2S131.39.53,133.66,2.37Z"/><path class="cls-26" d="M116.85,10s2.17-7,4.68-8.51S124.76.05,124.76.05l-.89,0s-4.39.67-5.16,2.07S116.08,7.94,116.85,10Z"/><path class="cls-28" d="M123.87,0s-3.12,0-5.16,4.22-1.86,5.8-1.86,5.8a13.36,13.36,0,0,1-2.52-1c.3-2.76,1.69-6.27,3.51-7.75S122.54,0,123.87,0Z"/><path class="cls-14" d="M117.12,30.76a39.94,39.94,0,0,1-1.57,3.75,1.25,1.25,0,0,0,.11,1.55c.38.23,2.63.36,3-.19s-.83-2.57-.83-2.57S117.52,30.34,117.12,30.76Z"/><polygon class="cls-29" points="155.48 120.65 151.19 123.13 131.93 219.66 136.23 217.18 155.48 120.65"/><polygon class="cls-30" points="151.19 123.13 160.04 128.24 179.3 247.01 170.44 241.9 151.19 123.13"/><polygon class="cls-29" points="164.34 125.76 160.04 128.24 179.3 247.01 183.59 244.53 164.34 125.76"/><polygon class="cls-30" points="151.19 123.13 142.33 118.01 123.07 214.55 131.93 219.66 151.19 123.13"/><polygon class="cls-31" points="129.58 175.35 129.56 168.49 168.38 195.43 168.41 202.29 129.58 175.35"/><polygon class="cls-32" points="131.78 167.14 129.56 168.49 168.38 195.43 170.61 194.08 131.78 167.14"/><polygon class="cls-29" points="170.64 200.95 168.41 202.29 168.38 195.43 170.61 194.08 170.64 200.95"/><polygon class="cls-33" points="87.63 234.33 87.63 228.93 218.61 153.31 218.61 158.71 87.63 234.33"/><polygon class="cls-29" points="44.47 184.74 40.17 187.22 20.91 283.76 25.21 281.28 44.47 184.74"/><polygon class="cls-30" points="40.17 187.22 49.02 192.34 68.28 311.11 59.42 305.99 40.17 187.22"/><polygon class="cls-29" points="53.32 189.86 49.02 192.34 68.28 311.11 72.58 308.63 53.32 189.86"/><polygon class="cls-30" points="40.17 187.22 31.31 182.11 12.06 278.64 20.91 283.76 40.17 187.22"/><polygon class="cls-31" points="18.56 239.45 18.54 232.58 57.36 259.52 57.39 266.39 18.56 239.45"/><polygon class="cls-32" points="20.77 231.24 18.54 232.58 57.36 259.52 59.59 258.18 20.77 231.24"/><polygon class="cls-29" points="59.62 265.04 57.39 266.39 57.36 259.52 59.59 258.18 59.62 265.04"/><polygon class="cls-34" points="87.63 228.93 0 178.34 130.98 102.72 218.61 153.31 87.63 228.93"/><polygon class="cls-35" points="81.75 211.48 19.31 175.43 125.93 113.87 188.37 149.92 81.75 211.48"/><path class="cls-36" d="M100.5,169.05l-12.27-6.88,22.17-12.8,12.27,6.88Zm-9.69-6.89,9.68,5.42,19.6-11.31-9.68-5.43Z"/><path class="cls-36" d="M83.69,177.15,67,167.52l16.68-9.64,16.68,9.64Zm-14.13-9.63,14.13,8.15,14.13-8.15-14.13-8.16Z"/><path class="cls-36" d="M114.5,178l-16.68-9.63,16.68-9.64,16.68,9.64Zm-14.13-9.63,14.13,8.15,14.13-8.15-14.13-8.16Z"/><path class="cls-36" d="M119.82,162.73l-16.69-9.63,16.69-9.63,16.68,9.63Zm-14.13-9.63,14.13,8.15,14.12-8.15-14.12-8.16Z"/><path class="cls-36" d="M85.45,204.16l-.37-.22L32,173.29l90.24-52.1.37.21,53.1,30.66ZM35,173.29l50.5,29.16,87.28-50.39-50.5-29.16Z"/><polygon class="cls-37" points="0 183.74 0 178.34 87.63 228.93 87.63 234.33 0 183.74"/><polygon class="cls-38" points="37.08 168.99 32.73 168.9 31.19 176.18 26.62 177.71 21.21 177.75 12.57 171.08 32.34 159.67 37.08 168.99"/><path class="cls-11" d="M37.21,168.62a.71.71,0,0,1-.14.38c-.54.8-2.69.24-2.69.24l-1.59-1.8s0,.62,0,1.47c-.09,1.65-.21,4.16-.23,4.58-.07.64-.19,2.62-1.33,2.7h0c-1.09,0-1.47-1.75-1.4-2.51s-.8-7.11-.8-7.11l-1,2.93-.73,3.23v0l-.4,1.87a17.62,17.62,0,0,1-.24,3.09,2.18,2.18,0,0,1-.3.78c-.62.71-1.78-.14-1.78-.14l-.28-.35a6.12,6.12,0,0,1-.76.7l0,0a1.13,1.13,0,0,1-.61.23c-.53,0-1.73-.47-1.66-1.22a10.56,10.56,0,0,0,0-1.12c-.05-.4-.1-.73-.1-.73a2.15,2.15,0,0,1-1.2.14.71.71,0,0,1-.55-.4,14.73,14.73,0,0,1-1.06-4.7c.09-1,.52-2.81.52-3,0,0,0-.07.09-.24a.15.15,0,0,0,0-.07,1.7,1.7,0,0,1,.12-.3.24.24,0,0,1,0-.1c.33-.83,1-2.31,1.44-3.8,0,0,0,0,0,0a16.75,16.75,0,0,0,.92-3.71,15,15,0,0,0-1-5.91c-.83-2.48-8.39-21.48-9.15-24s-1.06-11.67-1.72-13.35C9,115.09,6.79,104.55,6,100.84c-.16-.81-.26-1.28-.26-1.28L7.22,98.5a41.21,41.21,0,0,1,4.65-3.19c.5,0,8.66,3.47,8.66,3.47s.92,8.11.92,11.82-.17,7.68.4,10.59,4.42,20.44,5.2,23.59S30,155.67,31,157s4.37,5,4.46,5.61.45,3.71.62,4.08S37.26,167.87,37.21,168.62Z"/><path class="cls-12" d="M21.21,176.51l0,.13c0-.41-.09-.73-.09-.73a2.36,2.36,0,0,1-1.21.14h0s.73-.56.53-2.19a20.08,20.08,0,0,1,.28-4.48L22,166.51l-.6,3.29s.14,1.55-.08,1.7S21.21,176.51,21.21,176.51Z"/><path class="cls-12" d="M26.62,177.71a2,2,0,0,1-.31.8c-.6.7-1.77-.15-1.77-.15l-.29-.35a5,5,0,0,1-.76.72l.72-8.42.8-3.64-.34,4-.34,7.07a3.08,3.08,0,0,0,1.5.54A1.33,1.33,0,0,0,26.62,177.71Z"/><path class="cls-12" d="M30.37,175a6.59,6.59,0,0,0,.82,1.2c-1.14.06-1.52-1.75-1.46-2.49s-.79-7.12-.79-7.12l-1,2.94-.72,3.23.78-5.81,1.06-2.23.82,5.45S30.05,174.41,30.37,175Z"/><path class="cls-12" d="M37.21,168.62a.79.79,0,0,1-.13.37c-.55.81-2.72.25-2.72.25l-1.57-1.8s0,.61-.06,1.46h0l-.28-3.15-.11-3.1,1,3.82a12.31,12.31,0,0,0,1.48,1.63A3.41,3.41,0,0,0,37.21,168.62Z"/><path class="cls-12" d="M21.9,160.54a13.76,13.76,0,0,0-1.37,2.84,16.38,16.38,0,0,0,.92-3.69,15,15,0,0,0-1-5.91c-.83-2.48-8.39-21.48-9.15-24s-1.06-11.67-1.72-13.35C9,115.09,6.79,104.55,6,100.84l1.3-1.51s2.3,10.54,2.84,14.46.68,5.65,2.13,9.1-1.23,2.91,1.84,11.25,6.9,20.18,8.82,22.17C24,157.07,22.63,159.71,21.9,160.54Z"/><path class="cls-2" d="M22.15,99.59a23.51,23.51,0,0,1-8.12,2,27.52,27.52,0,0,1-8.5-.73C5.18,100.72,2.87,88.49,3,87.05s.38-6.75,1.57-9.88,5.09-6.28,5.09-6.28a20,20,0,0,1,9.57,11C21.93,89.84,22.15,99.59,22.15,99.59Z"/><polygon class="cls-38" points="94.6 147.02 85.09 147.22 79.47 145.72 64.28 141.23 74.3 135.45 89.53 138.32 94.6 147.02"/><path class="cls-39" d="M95.19,144.42a12,12,0,0,1-1.42-3.61c0-1.17-8-5.36-8-5.36l-1.48,1.34,3.91,5.87s4.39,2.83,4.5,2.62S94.6,147,94.6,147Z"/><path class="cls-11" d="M95.75,144.31l-.41,1.85-.74.86-.39-1.85s-2.32-4.15-2.61-4.35-3.09-2.44-3.09-2.44a19.74,19.74,0,0,0-3.51,0,11.87,11.87,0,0,0-1.06,1.48s.49,3.09.58,3.2.39.73.73,1.4a6.16,6.16,0,0,1,.56,1.42c0,.45,0,1.38-.72,1.31a2.47,2.47,0,0,1-1.26-.43L82,144.49,79.63,138s-2.56-7-3.08-7.49-9.47-11.58-13.21-16S55,100.25,55,100.25l-1.37-2.84c.18-1.73.68-5.13,1.15-8.45A11,11,0,0,0,56,88.83a14.2,14.2,0,0,0,4.22-1.06,3.73,3.73,0,0,0,1.31-1A70.32,70.32,0,0,0,66,93.4a51.57,51.57,0,0,1,7,12.71c1.65,4.58,7.42,17.33,7.91,18.46s3.52,5.61,4,6.24,6,4.13,6.26,4.22,3.7,5.47,3.77,5.61S95.75,144.31,95.75,144.31Z"/><path class="cls-12" d="M85.81,145.91c0,.45,0,1.38-.72,1.31a2.47,2.47,0,0,1-1.26-.43L82,144.49,79.63,138s-2.56-7-3.08-7.49-9.47-11.58-13.21-16S55,100.25,55,100.25l-1.37-2.84c.18-1.73.68-5.13,1.15-8.45A11,11,0,0,0,56,88.83c.14,2.54.43,8,.7,9.06a24.77,24.77,0,0,0,2.82,5.65c1.08,1.63,4,5.75,4.64,7.1s6.51,9.92,6.51,9.92,3.57,4.51,4.44,5.48,2.21,3.65,3,4.84,3.06,9.65,3.06,9.65l2,3.78,2.1.18A6.16,6.16,0,0,1,85.81,145.91Z"/><polygon class="cls-38" points="153.39 131.68 146.03 118.03 137.95 106.74 156.15 117.3 164.41 131.28 165.15 139.6 161.78 140.48 153.39 131.68"/><path class="cls-38" d="M112,146.31V121.49l-2.64-6.3-9.84,6.3,2,14.48-2.5,4.51s-.85,6.92.23,8.41,3.78,5.44,3.78,5.44l1.88-1.27S107,146.81,112,146.31Z"/><path class="cls-11" d="M166.77,136.86c-.27.34-.6.23-.79.7a3.94,3.94,0,0,0-.16.91,2.25,2.25,0,0,1-.2.93s-.49.39-.47.2c-.09.56-.67,1.12-1.23.76s-.52-1.14-.48-1.69c0-.2.17-.87-.09-.87s-.39.32-.6.61a4.8,4.8,0,0,1-.28.39l-1.29-.92s.24-3.78.15-4.63a14.45,14.45,0,0,0-1.27-3.59,5.11,5.11,0,0,0-2.87-2.31l-1.39,1.71-.26,3.05L154,133.78l-.4.42a11.27,11.27,0,0,1-1.41-3.27c-.14-1.22,1-6.94,1-7.18s2.05-8.79,1.52-13-4-20.93-3.95-22.7-3.74-14.85-4.45-16c-.54-.86-.1-3.69.13-5,.07-.39.12-.63.12-.63l4.2-1.22s5.54-1.47,6.61,1.13l0,.06c1.11,2.71,5.65,15.88,6.07,20.32s-.49,22.81-.75,25.86a31.57,31.57,0,0,0,.73,8.37c.29.91,2.83,6.7,2.94,7.68s.26,2.23.4,3.34a21.76,21.76,0,0,1,.2,3.22C167,135.68,167.09,136.48,166.77,136.86Z"/><path class="cls-12" d="M153.39,131.68l.58,2.1-.4.42a11.27,11.27,0,0,1-1.41-3.27c-.14-1.22,1-6.94,1-7.18s2.05-8.79,1.52-13-4-20.93-3.95-22.7-3.74-14.85-4.45-16c-.54-.86-.1-3.69.13-5,1.8.44,3.12.88,3.12.88s-.64,4.71.07,6.78,2.48,9.74,2.48,9.74l4.76-1s-3.46,1.81-3.64,2.92,1.16,8.17.93,10.91,1.8,14.84,2,15.82a39.7,39.7,0,0,1,.05,4.12s-2.74,10.35-2.79,11S153.39,131.68,153.39,131.68Z"/><path class="cls-40" d="M157.41,127.43l-1.72,2.91-2.08,3.12-1.75,2.93s-.51.69,1.8,1.09,5.85,1,6.23.81a9.81,9.81,0,0,0,1.39-2.22l.05-2.82-.42-1.54-.85-2S159.85,128.26,157.41,127.43Z"/><path class="cls-11" d="M113,141a17.8,17.8,0,0,1-.63,4.68h0a1.59,1.59,0,0,1-.37.64c-1,.89-1.7-.95-2.06-2.43a31.59,31.59,0,0,1,0-6L108.76,140l-.39,4.57s-.42,4.88-.6,7a1.75,1.75,0,0,1-2.79,1.46,2.25,2.25,0,0,1-.19-.91c-.16-1.75,0-5.32,0-5.32l-1.28-.11a12.87,12.87,0,0,1-2.69-1.77c-.7-.62-2.13-4.14-2.57-5.63s-.43-2.53.35-5,2-5.24,2-6-4-22.3-4.48-26a40.09,40.09,0,0,1,.42-10.13c.29-2.07-2-15-2.57-19.52A16.51,16.51,0,0,1,94.66,65l.8,0c2.35.09,9.12.46,10.69,1.52,1.91,1.29,1.5,4.17,2.15,8.9a77,77,0,0,1-.06,14.78C108,92.28,108,97,108,106.41s.55,18,1.61,20.73,3.85,9.52,3.85,9.52Z"/><path class="cls-12" d="M166.77,136.86c-.27.34-.6.23-.79.7a3.94,3.94,0,0,0-.16.91,2.25,2.25,0,0,1-.2.93s-.49.39-.47.2c-.09.56-.67,1.12-1.23.76s-.52-1.14-.48-1.69c0-.2.17-.87-.09-.87s-.39.32-.6.61l.79-4.54-.54-6,1,5.75-.4,5.7s.4.52.81.43.25-5.79.25-5.79l-.45-5.57.77,4.67.05,5,.46-.57.29-1.06L165,128.2l.87,4,.38,3.54c0-.47,0-4.22,0-4.76s-1.32-3.46-1.41-4.35-3.25-6.33-3.18-7.14.13-17.67.82-22.86-.62-11.68-1.33-14.72S156.57,67,156.57,67l.8-.6c1.11,2.71,5.65,15.88,6.07,20.32s-.49,22.81-.75,25.86a31.57,31.57,0,0,0,.73,8.37c.29.91,2.83,6.7,2.94,7.68s.26,2.23.4,3.34a21.76,21.76,0,0,1,.2,3.22C167,135.68,167.09,136.48,166.77,136.86Z"/><path class="cls-12" d="M104.65,140.89l.13,5.94-1.28-.11a12.87,12.87,0,0,1-2.69-1.77c-.7-.62-2.13-4.14-2.57-5.63s-.43-2.53.35-5,2-5.24,2-6-4-22.3-4.48-26a40.09,40.09,0,0,1,.42-10.13c.29-2.07-2-15-2.57-19.52A16.51,16.51,0,0,1,94.66,65l.8,0c-.12,1.87-.34,3.57-.36,4.29-.1,3.06,1.74,16.46,2,17.2s-.07,6-.14,11.5,3.74,26.57,3.74,26.59,1.55,4,1.55,4a4.53,4.53,0,0,0-1.11,1.52c-.58,1.14-2.37,8.2-2.37,8.2l1.37,3.5.44-2.27.51,2.68,1,1.7.55-3.72.49,4.72,1.17.86Z"/><path class="cls-23" d="M159.05,67.25s-3.34,3.27-6.39,4a38.58,38.58,0,0,1-6.37.83s-1.23-4.47-1.43-5,4.53-25.85,4.53-25.85,2.09,1.15,4.24,6.34S158,63.93,159.05,67.25Z"/><path class="cls-23" d="M98.35,43.8A18.46,18.46,0,0,0,93.42,55a93.88,93.88,0,0,0-.28,14.59s5.63.24,9.06.77a14.42,14.42,0,0,0,5.91-.22s-.93-10.82-1.66-13.71-2.82-9.38-4.76-12.3A2,2,0,0,0,98.35,43.8Z"/><path class="cls-12" d="M112.39,145.67a1.59,1.59,0,0,1-.37.64c-1,.89-1.7-.95-2.06-2.43a31.59,31.59,0,0,1,0-6L108.76,140l-.39,4.57s-.42,4.88-.6,7a1.75,1.75,0,0,1-2.79,1.46,2.25,2.25,0,0,1-.19-.91,1.63,1.63,0,0,0,.79.5c.75.11,1.72-1.2,1.72-1.2l.74-8.76.79-4.19,1.34-3.05a3.19,3.19,0,0,1,.52,2.14c0,1.55,0,4.9,0,4.9a5.66,5.66,0,0,0,.21,2.55A1.06,1.06,0,0,0,112.39,145.67Z"/><polygon class="cls-23" points="142.31 62.49 133.38 63.44 133.38 65.92 142.31 64.84 142.31 62.49"/><polygon class="cls-41" points="138.82 62.86 138.82 57.3 140.56 57.3 140.56 62.67 138.82 62.86"/><polygon class="cls-20" points="137.84 60.91 135.93 60.91 136.12 63.15 137.84 62.97 137.84 60.91"/></g></g></g></svg>