<svg xmlns="http://www.w3.org/2000/svg" viewBox="0 0 393.29 398.14"><defs><style>.cls-1{fill:#302e2f;}.cls-2{fill:#efb98e;}.cls-3{fill:#fdcda2;}.cls-4{fill:#603913;}.cls-5{fill:#393839;}.cls-6{fill:#fff;}.cls-7{fill:#e6e7e8;}.cls-8{fill:#939598;}.cls-9{fill:#d1d3d4;}.cls-10{fill:#efaa15;}.cls-11{fill:#ffc709;}.cls-12{fill:#e9901b;}.cls-13{fill:#a7a9ac;}.cls-14{fill:#808285;}.cls-15{fill:#3c2415;}.cls-16{fill:#1c0200;}.cls-17{fill:#faa819;}</style></defs><g id="Layer_2" data-name="Layer 2"><g id="Capa_1" data-name="Capa 1"><path d="M327.86,6.49A101,101,0,0,0,220.57,172l-31.09,39.09,65.73-16.25,1.58.61a100.94,100.94,0,0,0,71.07-189Z"/><path class="cls-1" d="M208.08,398.14c-.85-17.9-2.7-35.3-6.45-45.22-11-28.94-24.37-27.68-24.37-27.68l-.25,72.9Z"/><path class="cls-1" d="M31.07,398.14l-.25-72.9S17.41,324,6.45,352.92C2.69,362.84.84,380.24,0,398.14Z"/><path class="cls-2" d="M105.29,265.76H74.6v45.6s12.73,25.08,30.69,25.08c17.42,0,30.69-23.67,30.69-23.67v-47Z"/><path class="cls-3" d="M162.92,211.87a4,4,0,0,0-3.65.86c0-.94,0-1.85,0-2.81,0-22.7-6.72-37.1-15.51-46.24H58.29c-10.4,10.14-16.68,26-17.34,50a4.38,4.38,0,0,0-4.6-1.82c-5.88,1.39-5.35,17.33,0,25.12,3.7,5.39,6.29,5.9,7.53,5.7,9.63,38.15,40.13,61,59.36,61,18.77,0,44.12-18.67,52.92-60.95,1.4-.12,3.69-1.21,6.76-5.71C168.23,229.2,168.77,213.26,162.92,211.87Z"/><path class="cls-4" d="M55.51,163.68c-13.25,13.69-16.31,34.38-14.59,56.07,0,0,15.49,4.39,18.64-27.35,0,0,43.33,10.65,72.48-14.7,0,0,15.36,15.67,17,30.57,1.21,11,6.42,12.7,10.27,11.48,0,0,3.31-33.94-12.18-56.07,0,0-12.11-20-47.32-20C75.75,143.72,63.89,155,55.51,163.68Z"/><polygon class="cls-5" points="178.02 398.14 178.02 325.72 139.85 313.06 104.59 331.26 68.53 313.06 30.35 325.72 30.35 398.14 178.02 398.14"/><polygon class="cls-6" points="115.7 398.14 139.17 311.04 105.85 332.1 69.35 310.87 92.4 398.14 115.7 398.14"/><polygon class="cls-7" points="107.2 398.14 108.18 327.63 102.08 327.63 102.08 398.14 107.2 398.14"/><path class="cls-8" d="M107.09,338.38a2.11,2.11,0,1,1-2.1-2.13A2.11,2.11,0,0,1,107.09,338.38Z"/><path class="cls-9" d="M106.74,338.38a1.75,1.75,0,1,1-1.75-1.77A1.75,1.75,0,0,1,106.74,338.38Z"/><path class="cls-8" d="M104.72,337.84a.32.32,0,0,1-.32.32.32.32,0,0,1-.32-.32.31.31,0,0,1,.32-.31A.31.31,0,0,1,104.72,337.84Z"/><path class="cls-8" d="M105.9,337.84a.32.32,0,0,1-.32.32.31.31,0,0,1-.31-.32.3.3,0,0,1,.31-.31A.31.31,0,0,1,105.9,337.84Z"/><path class="cls-8" d="M104.72,338.9a.32.32,0,0,1-.32.32.32.32,0,0,1-.32-.32.32.32,0,0,1,.32-.32A.33.33,0,0,1,104.72,338.9Z"/><path class="cls-8" d="M105.9,338.9a.32.32,0,0,1-.32.32.31.31,0,0,1-.31-.32.31.31,0,0,1,.31-.32A.32.32,0,0,1,105.9,338.9Z"/><path class="cls-6" d="M104.24,337.69a.19.19,0,0,0,0,.26l1.19,1.11a.18.18,0,0,0,.26,0h0a.17.17,0,0,0,0-.25l-1.21-1.11a.16.16,0,0,0-.25,0Z"/><path class="cls-6" d="M105.7,337.69a.21.21,0,0,1,0,.26l-1.22,1.11a.16.16,0,0,1-.24,0h0a.16.16,0,0,1,0-.25l1.21-1.11a.16.16,0,0,1,.25,0Z"/><path class="cls-8" d="M107.09,356a2.11,2.11,0,1,1-2.1-2.12A2.11,2.11,0,0,1,107.09,356Z"/><path class="cls-9" d="M106.74,356a1.75,1.75,0,1,1-1.75-1.76A1.75,1.75,0,0,1,106.74,356Z"/><path class="cls-8" d="M104.72,355.51a.32.32,0,0,1-.32.31.31.31,0,0,1-.32-.31.32.32,0,0,1,.32-.33A.33.33,0,0,1,104.72,355.51Z"/><path class="cls-8" d="M105.9,355.51a.31.31,0,0,1-.32.31.31.31,0,0,1-.31-.31.32.32,0,0,1,.31-.33A.32.32,0,0,1,105.9,355.51Z"/><path class="cls-8" d="M104.72,356.56a.33.33,0,0,1-.32.32.32.32,0,0,1-.32-.32.32.32,0,0,1,.32-.32A.32.32,0,0,1,104.72,356.56Z"/><path class="cls-8" d="M105.9,356.56a.32.32,0,0,1-.32.32.31.31,0,0,1-.31-.32.31.31,0,0,1,.31-.32A.32.32,0,0,1,105.9,356.56Z"/><path class="cls-6" d="M104.24,355.35a.18.18,0,0,0,0,.25l1.19,1.12a.19.19,0,0,0,.26,0h0a.18.18,0,0,0,0-.26l-1.21-1.12a.18.18,0,0,0-.25,0Z"/><path class="cls-6" d="M105.7,355.35a.2.2,0,0,1,0,.25l-1.22,1.12a.16.16,0,0,1-.24,0h0a.17.17,0,0,1,0-.26l1.21-1.12a.18.18,0,0,1,.25,0Z"/><path class="cls-8" d="M107.09,373.7a2.11,2.11,0,1,1-2.1-2.12A2.1,2.1,0,0,1,107.09,373.7Z"/><path class="cls-9" d="M106.74,373.7a1.75,1.75,0,1,1-1.75-1.76A1.75,1.75,0,0,1,106.74,373.7Z"/><path class="cls-8" d="M104.72,373.17a.33.33,0,0,1-.32.32.32.32,0,0,1-.32-.32.32.32,0,0,1,.32-.32A.32.32,0,0,1,104.72,373.17Z"/><path class="cls-8" d="M105.9,373.17a.32.32,0,0,1-.32.32.31.31,0,0,1-.31-.32.31.31,0,0,1,.31-.32A.32.32,0,0,1,105.9,373.17Z"/><path class="cls-8" d="M104.72,374.23a.33.33,0,0,1-.32.32.33.33,0,0,1,0-.65A.33.33,0,0,1,104.72,374.23Z"/><path class="cls-8" d="M105.9,374.23a.32.32,0,0,1-.32.32.33.33,0,0,1,0-.65A.32.32,0,0,1,105.9,374.23Z"/><path class="cls-6" d="M104.24,373a.19.19,0,0,0,0,.26l1.19,1.11a.18.18,0,0,0,.26,0h0a.17.17,0,0,0,0-.25L104.49,373a.18.18,0,0,0-.25,0Z"/><path class="cls-6" d="M105.7,373a.21.21,0,0,1,0,.26l-1.22,1.11a.16.16,0,0,1-.24,0h0a.16.16,0,0,1,0-.25l1.21-1.13a.18.18,0,0,1,.25,0Z"/><path class="cls-8" d="M107.09,391.35a2.11,2.11,0,1,1-2.1-2.11A2.11,2.11,0,0,1,107.09,391.35Z"/><path class="cls-9" d="M106.74,391.35A1.75,1.75,0,1,1,105,389.6,1.75,1.75,0,0,1,106.74,391.35Z"/><path class="cls-8" d="M104.72,390.83a.33.33,0,0,1-.32.32.32.32,0,0,1-.32-.32.32.32,0,0,1,.32-.32A.32.32,0,0,1,104.72,390.83Z"/><circle class="cls-8" cx="105.58" cy="390.83" r="0.32"/><path class="cls-8" d="M104.72,391.88a.33.33,0,0,1-.32.33.33.33,0,0,1,0-.65A.33.33,0,0,1,104.72,391.88Z"/><path class="cls-8" d="M105.9,391.88a.32.32,0,0,1-.32.33.33.33,0,0,1,0-.65A.32.32,0,0,1,105.9,391.88Z"/><path class="cls-6" d="M104.24,390.67a.19.19,0,0,0,0,.26l1.19,1.12a.2.2,0,0,0,.26,0h0a.17.17,0,0,0,0-.25l-1.21-1.13a.18.18,0,0,0-.25,0Z"/><path class="cls-6" d="M105.7,390.67a.21.21,0,0,1,0,.26l-1.22,1.12a.17.17,0,0,1-.24,0h0a.16.16,0,0,1,0-.25l1.21-1.13a.18.18,0,0,1,.25,0Z"/><path class="cls-9" d="M104.74,326.89s17.73-3.38,31.22-16l4.95-.05L127,346.26l-22.24-14.42Z"/><path class="cls-9" d="M104.78,326.89s-17.73-3.38-31.22-16l-4.94-.05,13.92,35.4,22.24-14.42Z"/><polygon class="cls-1" points="119.97 398.14 113.02 335.05 96.87 335.05 89.9 398.14 119.97 398.14"/><path class="cls-1" d="M104.92,348.33A40.72,40.72,0,0,1,94,337.55a40.76,40.76,0,0,1,10.88-10.79,40.83,40.83,0,0,1,10.9,10.79A40.8,40.8,0,0,1,104.92,348.33Z"/><polygon class="cls-1" points="83.41 398.14 92.31 398.14 69.42 311.47 61.76 311.35 54.93 320.72 62.91 328.77 54.85 336.74 83.41 398.14"/><polygon class="cls-1" points="124.59 398.14 153.15 336.74 145.08 328.77 153.07 320.72 146.24 311.35 139.22 311.4 115.9 398.14 124.59 398.14"/><path class="cls-10" d="M53.06,192.08V179a2.16,2.16,0,0,0-2.31-2H42.08a2.17,2.17,0,0,0-2.3,2v13.09Z"/><path class="cls-10" d="M164.42,192.08V179a2.16,2.16,0,0,0-2.31-2h-8.67a2.17,2.17,0,0,0-2.31,2v13.09Z"/><path class="cls-11" d="M160.8,192.08c.09-1.18.16-2.37.16-3.57,0-28.07-26.36-50.82-58.86-50.82s-58.86,22.75-58.86,50.82c0,1.2.06,2.39.16,3.57Z"/><path class="cls-10" d="M124.73,185c0,2.49-2.34,4.51-5.22,4.51H84.7c-2.89,0-5.23-2-5.23-4.51V144.83c0-1.24,5.66-8.82,22.63-8.82,17.69,0,22.63,7.58,22.63,8.82Z"/><path class="cls-12" d="M107.16,181c0,1.62-2.27,2.93-5.06,2.93h0c-2.8,0-5.06-1.31-5.06-2.93V137.35c0-1.62,2.26-2.92,5.06-2.92h0c2.79,0,5.06,1.3,5.06,2.92Z"/><path class="cls-10" d="M167.38,201.4c-.12.88-1.4,1.49-2.86,1.36a685,685,0,0,0-124.84,0c-1.47.13-2.74-.48-2.85-1.36-.3-2.38-.61-4.77-.92-7.14-.11-.88,1-1.72,2.5-1.86a700.23,700.23,0,0,1,127.38,0c1.49.14,2.61,1,2.49,1.86C168,196.63,167.68,199,167.38,201.4Z"/><polygon class="cls-9" points="346.6 144.59 237.72 144.59 249.28 91.34 335.05 91.34 346.6 144.59"/><polygon class="cls-6" points="344.13 137.3 240.32 137.3 248.71 98.64 335.74 98.64 344.13 137.3"/><path class="cls-13" d="M220.6,139.19s0-.12,0-.1c2.86,1.92,3.2,2.36,8.34,3.45,4.9,1,7.12.1,10.27.23L250.09,91.5a16.42,16.42,0,0,0-8.54-4.59L241,86.8a15.32,15.32,0,0,0-8.19.63l-12.27,51.76C221.84,134.92,220.58,139.19,220.6,139.19Z"/><path class="cls-14" d="M220.3,139.59c.4-1.92,5-2.58,10.23-1.47s9.16,3.57,8.75,5.5-5,2.58-10.23,1.47S219.89,141.51,220.3,139.59Z"/><path class="cls-13" d="M363.82,139.19s0-.12,0-.1c-2.86,1.92-3.2,2.36-8.33,3.45-4.9,1-7.13.1-10.28.23L334.34,91.5a16.31,16.31,0,0,1,8.54-4.59l.54-.11a15.36,15.36,0,0,1,8.19.63l12.26,51.76C362.58,134.92,363.84,139.19,363.82,139.19Z"/><path class="cls-14" d="M364.13,139.59c-.41-1.92-5-2.58-10.23-1.47s-9.16,3.57-8.75,5.5,5,2.58,10.23,1.47S364.54,141.51,364.13,139.59Z"/><polygon class="cls-15" points="324.1 121.6 324.1 82.97 292.21 68.37 276.17 75.67 260.32 82.97 260.32 121.6 324.1 121.6"/><rect class="cls-16" x="304.2" y="85.96" width="17.03" height="18"/><rect class="cls-16" x="263.6" y="85.96" width="17.03" height="18"/><polygon class="cls-17" points="292.22 56.32 258 72 258 84.01 292.22 68.38 292.22 56.32"/><polygon class="cls-11" points="292.2 56.32 326.43 72 326.43 84.01 292.2 68.38 292.2 56.32"/><rect class="cls-11" x="265.6" y="95.94" width="5.54" height="6.03"/><rect class="cls-11" x="265.6" y="87.96" width="5.54" height="6.03"/><rect class="cls-11" x="273.08" y="87.96" width="5.54" height="6.03"/><rect class="cls-11" x="273.08" y="95.94" width="5.54" height="6.03"/><rect class="cls-11" x="313.68" y="87.96" width="5.54" height="6.03"/><rect class="cls-11" x="306.19" y="95.94" width="5.54" height="6.03"/><rect class="cls-11" x="306.19" y="87.96" width="5.54" height="6.03"/><rect class="cls-11" x="313.68" y="95.94" width="5.54" height="6.03"/><rect class="cls-11" x="283.89" y="94.07" width="16.64" height="27.53"/><polygon class="cls-16" points="267.8 72.89 278.24 68.16 278.24 59.5 278.24 59.38 278.5 59.38 279.84 59.38 279.84 58.76 279.84 56.45 266.2 56.45 266.2 59.38 267.8 59.38 267.8 72.89"/></g></g></svg>